# xmcd CD database file
#
# Track frame offsets:
#	150
#	14949
#	38419
#	48838
#	66300
#	73029
#	80203
#	91501
#	103379
#	109245
#	121800
#	131593
#	137023
#	166608
#	185314
#	198911
#	209325
#	226248
#	234888
#	245706
#
# Disc length: 3462 seconds
#
# Revision: 5
# Processed by: cddbd v1.5.2PL0 Copyright (c) Steve Scherf et al.
# Submitted via: CDex 1.51
#
DISCID=120d8414
DTITLE=Various Artist - Chorales d'enfants  {Chants de Noël}  [CD 1-5] 
DYEAR=1900
DGENRE=Chants de Noël
TTITLE0=Choeurs d'enfants du théâtre du Bolchoï - Douce nuit
TTITLE1=Maîtrise de la Cathédrale de Strasbourg - Petit papa Noël
TTITLE2=Choeurs d'enfants du théâtre du Bolchoï - Mon beau sapin
TTITLE3=Maîtrise de la Cathédrale de Strasbourg - Minuit, chrétiens
TTITLE4=Les petits chanteurs de Noël - O ange charmant  (L'ange charmant)
TTITLE5=Choeurs d'enfants du théâtre du Bolchoï - Étoile de Noël
TTITLE6=Maîtrise de la Cathédrale de Strasbourg - Le traîneau du père Noël
TTITLE7=Maîtrise de la Cathédrale de Strasbourg - À Noël les cloches sonnent
TTITLE8=Les petits chanteurs de Noël - La complainte de Noël  (Tropar de Noël)
TTITLE9=Choeurs d'enfants du théâtre du Bolchoï - Christmas of Rimnicu
TTITLE10=Maîtrise de la Cathédrale de Strasbourg - Il est né le divin enfant
TTITLE11=St-Petersburg Children's Choir - The Bagpipe (Dudelsack)
TTITLE12=Les petits chanteurs de Noël - La complainte des neiges  (Chesnokov)
TTITLE13=Choeurs d'enfants du théâtre du Bolchoï - Naissance du Christ
TTITLE14=Chorale du tsar Pierre Le Grand - Au son de la veillée (Those evening bells)
TTITLE15=Les petits chanteurs de Noël - Christmas sweet candy (Gâteau)
TTITLE16=Choeurs d'enfants du théâtre du Bolchoï - La marche des Rois Mages
TTITLE17=Choeurs d'enfants du théâtre du Bolchoï - A Jérusalem on a sonné tôt
TTITLE18=Maîtrise de la Cathédrale de Strasbourg - Les anges dans nos campagnes
TTITLE19=Mainburger Kinderchor - Stille nacht suite
EXTD=
EXTT0=
EXTT1=
EXTT2=
EXTT3=
EXTT4=
EXTT5=
EXTT6=
EXTT7=
EXTT8=
EXTT9=
EXTT10=
EXTT11=
EXTT12=
EXTT13=
EXTT14=
EXTT15=
EXTT16=
EXTT17=
EXTT18=
EXTT19=
PLAYORDER=
